# xmcd CD database file generated by OrangeCD 5.2
#
# Track frame offsets:
#	150
#	14886
#	25091
#	34910
#	46814
#	61462
#	74396
#	85285
#	97676
#	107485
#	119520
#	130395
#	139944
#	149690
#	163611
#	173963
#	183143
#	196990
#	208227
#	221339
#	232373
#	245035
#	257317
#	271401
#	285420
#
# Disc length: 3947 seconds
#
# Revision: 0
# Processed by: cddbd v1.5.1PL2 Copyright (c) Steve Scherf et al.
# Submitted via: OrangeCD 5.2
#
DISCID=7c0f6919
DTITLE=Don Gibson - The Singer - The Songwriter 1966 - 1969 Disc 2
DYEAR=1900
DGENRE=Country
TTITLE0=You've Still Got A Place In My Heart
TTITLE1=Everlovin' Never Changing Mind
TTITLE2=Maiden's Prayer
TTITLE3=A Thing Called Sadness
TTITLE4=What Now My Love
TTITLE5=Half A Man
TTITLE6=Thoughts
TTITLE7=I Walk Alone
TTITLE8=I'm So Lonesome I Could Cry
TTITLE9=Someday You'll Call My Name
TTITLE10=She's Looking Good
TTITLE11=Times Were Good
TTITLE12=Don't Rob Another Man's Castle
TTITLE13=Someday (You'll Want Me To Want you)
TTITLE14=If My Heart Had Windows
TTITLE15=Ever Changing Mind
TTITLE16=You Can't Pick A Rose In December
TTITLE17=Til I Can't Take It Anymore (& Dottie West)
TTITLE18=Let's Wait A Little Longer ( and Dottie west)
TTITLE19=Lovin'Season ( and Dottie West)
TTITLE20=How's The World Treating You ( and Dottie West)
TTITLE21=Rings Of Gold ( and Dottie West)
TTITLE22=Sweet Memories ( and Dottie West)
TTITLE23=I Love You Because ( and Dottie West)
TTITLE24=When I Stop Dreaming ( and Dottie West)
EXTD=
EXTT0=
EXTT1=
EXTT2=
EXTT3=
EXTT4=
EXTT5=
EXTT6=
EXTT7=
EXTT8=
EXTT9=
EXTT10=
EXTT11=
EXTT12=
EXTT13=
EXTT14=
EXTT15=
EXTT16=
EXTT17=
EXTT18=
EXTT19=
EXTT20=
EXTT21=
EXTT22=
EXTT23=
EXTT24=
PLAYORDER=
